<?xml version="1.0" encoding="UTF-8"?>
<svg id="_Слой_1" data-name="Слой 1" xmlns="http://www.w3.org/2000/svg" width="70" height="70" viewBox="0 0 70 70">
  <defs>
    <style>
      .cls-1 {
        fill: #3e8dc8;
      }
    </style>
  </defs>
  <path class="cls-1" d="m23.95,35.02c2.96,5.82,7.72,10.58,13.55,13.54l4.52-4.53c.57-.57,1.38-.73,2.09-.5,2.3.76,4.78,1.17,7.34,1.17,1.14,0,2.06.91,2.06,2.06v7.19c0,1.14-.91,2.06-2.06,2.06-19.3,0-34.94-15.64-34.94-34.94,0-1.14.93-2.06,2.06-2.06h7.19c1.14,0,2.06.91,2.06,2.06,0,2.56.41,5.04,1.17,7.34.23.71.06,1.52-.5,2.09l-4.52,4.54Z"/>
</svg>