<?xml version="1.0" encoding="UTF-8"?>
<svg id="_Слой_1" data-name="Слой 1" xmlns="http://www.w3.org/2000/svg" width="70" height="70" viewBox="0 0 70 70">
  <defs>
    <style>
      .cls-1 {
        fill: #3e8dc8;
      }
    </style>
  </defs>
  <path class="cls-1" d="m65.85,20.66h-10.75c-.89,0-1.72.49-2.14,1.28,0,0-4.29,7.89-5.66,10.55-3.7,7.15-6.1,4.91-6.1,1.59v-11.45c0-1.99-1.61-3.61-3.61-3.61h-8.08c-2.24-.17-4.4.84-5.72,2.65,0,0,4.1-.66,4.1,4.87,0,1.37.07,5.31.13,8.62.03,1.32-1.01,2.41-2.32,2.44-.7.02-1.37-.27-1.84-.79-3.31-4.6-6.05-9.58-8.16-14.84-.37-.8-1.17-1.32-2.06-1.32H3.89c-.92,0-1.66.73-1.67,1.65,0,.2.03.4.1.59,2.97,8.13,15.74,33.69,30.32,33.69h6.14c1.34,0,2.42-1.09,2.42-2.42v-3.71c0-1.32,1.07-2.38,2.38-2.38.61,0,1.19.23,1.63.65l7.34,6.9c.66.62,1.53.96,2.44.96h9.64c4.65,0,4.65-3.23,2.12-5.73-1.78-1.76-8.23-8.55-8.23-8.55-1.14-1.18-1.25-3.02-.26-4.32,2.08-2.74,5.49-7.22,6.93-9.15,1.97-2.63,5.55-8.19.65-8.19Z"/>
</svg>