<?xml version="1.0" encoding="UTF-8"?>
<svg id="_Слой_1" data-name="Слой 1" xmlns="http://www.w3.org/2000/svg" width="70" height="70" viewBox="0 0 70 70">
  <defs>
    <style>
      .cls-1 {
        fill: #3e8dc8;
        fill-rule: evenodd;
      }
    </style>
  </defs>
  <path class="cls-1" d="m49.6,21.02c-3.87-3.88-9.03-6.02-14.52-6.02-11.31,0-20.52,9.21-20.52,20.52,0,3.62.94,7.15,2.74,10.26l-2.91,10.63,10.88-2.85c3,1.63,6.37,2.5,9.81,2.5h0s0,0,0,0c11.31,0,20.52-9.21,20.52-20.52,0-5.48-2.13-10.64-6.01-14.52Zm-14.52,31.57h0c-3.06,0-6.06-.82-8.68-2.38l-.62-.37-6.46,1.69,1.72-6.29-.41-.65c-1.71-2.72-2.61-5.85-2.61-9.08,0-9.4,7.66-17.06,17.06-17.06,4.56,0,8.84,1.78,12.06,5,3.22,3.22,4.99,7.51,4.99,12.07,0,9.41-7.66,17.06-17.06,17.06Z"/>
  <path class="cls-1" d="m44.44,39.82c-.51-.26-3.03-1.5-3.5-1.67-.47-.17-.81-.26-1.15.26-.34.51-1.32,1.67-1.62,2.01-.3.34-.6.39-1.11.13-.51-.26-2.17-.8-4.12-2.55-1.52-1.36-2.55-3.04-2.85-3.55-.3-.51-.03-.79.22-1.05.23-.23.51-.6.77-.9.26-.3.34-.51.51-.86.17-.34.09-.64-.04-.9-.13-.26-1.15-2.78-1.58-3.81-.42-1-.84-.86-1.15-.88-.3-.01-.64-.02-.98-.02s-.9.13-1.37.64c-.47.51-1.79,1.75-1.79,4.28s1.84,4.96,2.09,5.3c.26.34,3.62,5.52,8.76,7.74,1.22.53,2.18.84,2.92,1.08,1.23.39,2.35.34,3.23.2.99-.15,3.03-1.24,3.46-2.44.43-1.2.43-2.22.3-2.44-.13-.21-.47-.34-.98-.6Z"/>
</svg>